<svg xmlns="http://www.w3.org/2000/svg" xmlns:xlink="http://www.w3.org/1999/xlink" width="2000" zoomAndPan="magnify" viewBox="0 0 1500 1499.999933" height="2000" preserveAspectRatio="xMidYMid meet" version="1.0"><defs><clipPath id="b9142da0b6"><path d="M 177.640625 150 L 1322.359375 150 L 1322.359375 887.53125 L 177.640625 887.53125 Z M 177.640625 150 " clip-rule="nonzero"/></clipPath><clipPath id="a97ab4f58e"><path d="M 0.640625 0 L 1145 0 L 1145 737.53125 L 0.640625 737.53125 Z M 0.640625 0 " clip-rule="nonzero"/></clipPath><clipPath id="6dcb846264"><rect x="0" width="1146" y="0" height="738"/></clipPath><clipPath id="2a707fbef6"><path d="M 177.640625 887.53125 L 1322.359375 887.53125 L 1322.359375 1350 L 177.640625 1350 Z M 177.640625 887.53125 " clip-rule="nonzero"/></clipPath><clipPath id="bd1ac2489c"><path d="M 0.640625 0.53125 L 1145.359375 0.53125 L 1145.359375 463 L 0.640625 463 Z M 0.640625 0.53125 " clip-rule="nonzero"/></clipPath><clipPath id="5cdd0d74d8"><rect x="0" width="1146" y="0" height="463"/></clipPath><clipPath id="d652961f51"><path d="M 177.640625 887.53125 L 1322.140625 887.53125 L 1322.140625 1349.996094 L 177.640625 1349.996094 Z M 177.640625 887.53125 " clip-rule="nonzero"/></clipPath></defs><g clip-path="url(#b9142da0b6)"><g transform="matrix(1, 0, 0, 1, 177, 150)"><g clip-path="url(#6dcb846264)"><g clip-path="url(#a97ab4f58e)"><path fill="#0145f2" d="M 0.640625 0 L 1144.386719 0 L 1144.386719 737.53125 L 0.640625 737.53125 Z M 0.640625 0 " fill-opacity="1" fill-rule="nonzero"/></g></g></g></g><g clip-path="url(#2a707fbef6)"><g transform="matrix(1, 0, 0, 1, 177, 887)"><g clip-path="url(#5cdd0d74d8)"><g clip-path="url(#bd1ac2489c)"><path fill="#ffffff" d="M 0.640625 0.53125 L 1145.976562 0.53125 L 1145.976562 463 L 0.640625 463 Z M 0.640625 0.53125 " fill-opacity="1" fill-rule="nonzero"/></g></g></g></g><g clip-path="url(#d652961f51)"><path stroke-linecap="butt" transform="matrix(0.75, 0, 0, 0.75, 177.640184, 887.530224)" fill="none" stroke-linejoin="miter" d="M 0.000587401 0.00136859 L 1526.281969 0.00136859 L 1526.281969 616.621213 L 0.000587401 616.621213 Z M 0.000587401 0.00136859 " stroke="#ffffff" stroke-width="30" stroke-opacity="1" stroke-miterlimit="4"/></g></svg>